<?xml version="1.0" encoding="UTF-8" standalone="no"?><!DOCTYPE svg PUBLIC "-//W3C//DTD SVG 1.1//EN" "http://www.w3.org/Graphics/SVG/1.1/DTD/svg11.dtd"><svg width="100%" height="100%" viewBox="0 0 16 23" version="1.1" xmlns="http://www.w3.org/2000/svg" xmlns:xlink="http://www.w3.org/1999/xlink" xml:space="preserve" xmlns:serif="http://www.serif.com/" style="fill-rule:evenodd;clip-rule:evenodd;stroke-linejoin:round;stroke-miterlimit:1.41421;"><path d="M4.06,22.637c0,0 9.21,-6.706 10.777,-13.49c0.927,-4.015 -1.58,-8.027 -5.595,-8.954c-4.015,-0.927 -8.027,1.58 -8.954,5.595c-1.567,6.785 3.772,16.849 3.772,16.849Zm4.437,-19.219c1.768,0.408 2.872,2.175 2.464,3.943c-0.408,1.768 -2.175,2.872 -3.943,2.464c-1.768,-0.409 -2.872,-2.175 -2.464,-3.943c0.409,-1.768 2.175,-2.872 3.943,-2.464Z"/><path d="M7.649,0.001l0.093,0.001l0.093,0.003l0.093,0.004l0.094,0.006l0.093,0.006l0.094,0.008l0.093,0.008l0.094,0.01l0.094,0.012l0.094,0.012l0.093,0.014l0.094,0.015l0.094,0.016l0.094,0.017l0.095,0.019l0.094,0.02l0.094,0.021l0.094,0.022l0.093,0.023l0.093,0.025l0.092,0.026l0.091,0.026l0.091,0.028l0.091,0.029l0.089,0.03l0.09,0.031l0.088,0.032l0.088,0.033l0.088,0.034l0.086,0.035l0.086,0.037l0.086,0.037l0.085,0.038l0.084,0.039l0.084,0.04l0.083,0.041l0.082,0.042l0.082,0.043l0.08,0.044l0.081,0.045l0.079,0.046l0.079,0.047l0.079,0.048l0.077,0.048l0.077,0.05l0.076,0.05l0.075,0.051l0.075,0.052l0.074,0.053l0.073,0.054l0.073,0.055l0.072,0.055l0.071,0.056l0.07,0.057l0.069,0.058l0.069,0.059l0.068,0.059l0.067,0.061l0.067,0.061l0.065,0.062l0.065,0.062l0.064,0.063l0.064,0.064l0.062,0.065l0.062,0.065l0.061,0.067l0.06,0.066l0.059,0.068l0.058,0.068l0.058,0.069l0.056,0.07l0.056,0.07l0.055,0.071l0.054,0.071l0.053,0.072l0.053,0.073l0.051,0.073l0.051,0.074l0.05,0.075l0.048,0.075l0.048,0.076l0.047,0.076l0.047,0.077l0.045,0.077l0.044,0.078l0.043,0.078l0.043,0.079l0.041,0.08l0.041,0.08l0.039,0.08l0.039,0.081l0.038,0.082l0.036,0.081l0.036,0.083l0.035,0.083l0.034,0.083l0.032,0.084l0.032,0.084l0.031,0.084l0.03,0.085l0.029,0.085l0.027,0.086l0.027,0.086l0.026,0.087l0.024,0.087l0.024,0.087l0.023,0.087l0.021,0.088l0.021,0.088l0.019,0.089l0.019,0.089l0.017,0.089l0.016,0.089l0.015,0.09l0.014,0.09l0.013,0.09l0.012,0.09l0.011,0.091l0.01,0.091l0.008,0.091l0.008,0.092l0.006,0.091l0.005,0.092l0.004,0.092l0.003,0.093l0.002,0.092l0,0.093l0,0.092l-0.002,0.093l-0.003,0.093l-0.004,0.093l-0.005,0.094l-0.006,0.093l-0.008,0.094l-0.009,0.093l-0.01,0.094l-0.011,0.094l-0.013,0.093l-0.013,0.094l-0.015,0.094l-0.016,0.094l-0.018,0.094l-0.018,0.094l-0.02,0.095l-0.021,0.094l-0.038,0.159l-0.041,0.159l-0.044,0.158l-0.046,0.159l-0.049,0.159l-0.051,0.159l-0.054,0.158l-0.056,0.158l-0.059,0.158l-0.061,0.158l-0.064,0.158l-0.065,0.157l-0.068,0.157l-0.07,0.157l-0.073,0.157l-0.074,0.156l-0.076,0.156l-0.079,0.156l-0.08,0.155l-0.082,0.155l-0.084,0.154l-0.086,0.154l-0.087,0.154l-0.089,0.153l-0.091,0.153l-0.093,0.152l-0.094,0.151l-0.095,0.151l-0.097,0.151l-0.098,0.15l-0.1,0.149l-0.101,0.149l-0.102,0.148l-0.104,0.147l-0.104,0.147l-0.106,0.146l-0.107,0.145l-0.107,0.145l-0.109,0.144l-0.11,0.143l-0.11,0.142l-0.112,0.142l-0.112,0.14l-0.113,0.14l-0.113,0.139l-0.114,0.138l-0.115,0.138l-0.115,0.136l-0.116,0.135l-0.116,0.134l-0.117,0.134l-0.117,0.132l-0.117,0.132l-0.118,0.13l-0.117,0.129l-0.118,0.128l-0.118,0.128l-0.118,0.126l-0.118,0.124l-0.118,0.124l-0.235,0.244l-0.235,0.239l-0.234,0.234l-0.232,0.229l-0.23,0.224l-0.228,0.219l-0.225,0.212l-0.222,0.207l-0.218,0.202l-0.215,0.195l-0.211,0.189l-0.206,0.182l-0.201,0.176l-0.195,0.17l-0.19,0.163l-0.183,0.155l-0.177,0.149l-0.17,0.141l-0.163,0.134l-0.155,0.127l-0.147,0.119l-0.139,0.111l-0.25,0.197l-0.211,0.165l-0.17,0.13l-0.125,0.094l-0.104,0.077l-0.06,-0.114l-0.071,-0.14l-0.095,-0.191l-0.118,-0.241l-0.138,-0.287l-0.076,-0.161l-0.08,-0.171l-0.084,-0.182l-0.088,-0.191l-0.091,-0.202l-0.094,-0.211l-0.096,-0.221l-0.099,-0.229l-0.102,-0.238l-0.103,-0.247l-0.105,-0.254l-0.107,-0.262l-0.107,-0.27l-0.108,-0.276l-0.109,-0.284l-0.109,-0.29l-0.109,-0.296l-0.109,-0.302l-0.108,-0.307l-0.108,-0.313l-0.106,-0.318l-0.104,-0.323l-0.052,-0.162l-0.051,-0.164l-0.051,-0.165l-0.05,-0.166l-0.05,-0.167l-0.049,-0.168l-0.049,-0.169l-0.047,-0.169l-0.047,-0.17l-0.047,-0.171l-0.045,-0.172l-0.045,-0.172l-0.044,-0.173l-0.043,-0.174l-0.042,-0.174l-0.041,-0.175l-0.04,-0.175l-0.039,-0.175l-0.038,-0.176l-0.037,-0.177l-0.036,-0.177l-0.035,-0.176l-0.033,-0.178l-0.033,-0.177l-0.031,-0.178l-0.029,-0.177l-0.029,-0.178l-0.027,-0.178l-0.025,-0.178l-0.024,-0.178l-0.023,-0.178l-0.021,-0.178l-0.02,-0.177l-0.018,-0.178l-0.016,-0.177l-0.015,-0.177l-0.013,-0.177l-0.011,-0.176l-0.01,-0.176l-0.007,-0.176l-0.006,-0.175l-0.004,-0.174l-0.003,-0.175l0,-0.173l0.002,-0.173l0.004,-0.173l0.005,-0.172l0.008,-0.171l0.01,-0.17l0.012,-0.169l0.015,-0.169l0.016,-0.168l0.019,-0.167l0.021,-0.166l0.023,-0.165l0.026,-0.164l0.028,-0.163l0.03,-0.162l0.033,-0.161l0.036,-0.159l0.022,-0.094l0.023,-0.093l0.025,-0.093l0.026,-0.092l0.026,-0.092l0.028,-0.091l0.029,-0.09l0.03,-0.09l0.031,-0.089l0.032,-0.089l0.033,-0.088l0.034,-0.087l0.035,-0.087l0.037,-0.086l0.037,-0.086l0.038,-0.084l0.039,-0.085l0.04,-0.083l0.041,-0.083l0.042,-0.082l0.044,-0.082l0.043,-0.081l0.045,-0.08l0.046,-0.08l0.047,-0.079l0.048,-0.078l0.048,-0.078l0.05,-0.076l0.05,-0.077l0.051,-0.075l0.052,-0.075l0.053,-0.074l0.054,-0.073l0.055,-0.072l0.055,-0.072l0.056,-0.071l0.058,-0.07l0.057,-0.07l0.059,-0.069l0.06,-0.068l0.06,-0.067l0.061,-0.066l0.062,-0.066l0.062,-0.065l0.063,-0.064l0.064,-0.063l0.065,-0.063l0.066,-0.061l0.066,-0.061l0.067,-0.06l0.067,-0.059l0.068,-0.059l0.069,-0.057l0.07,-0.057l0.07,-0.056l0.071,-0.055l0.071,-0.054l0.072,-0.053l0.073,-0.052l0.073,-0.052l0.074,-0.051l0.075,-0.049l0.075,-0.049l0.076,-0.048l0.076,-0.047l0.077,-0.046l0.077,-0.045l0.078,-0.045l0.079,-0.043l0.078,-0.042l0.08,-0.042l0.08,-0.04l0.08,-0.04l0.081,-0.039l0.082,-0.037l0.082,-0.037l0.082,-0.036l0.083,-0.034l0.083,-0.034l0.084,-0.033l0.084,-0.032l0.084,-0.031l0.085,-0.029l0.086,-0.029l0.085,-0.028l0.086,-0.027l0.087,-0.025l0.087,-0.025l0.087,-0.024l0.087,-0.022l0.088,-0.022l0.088,-0.02l0.089,-0.02l0.089,-0.018l0.089,-0.018l0.089,-0.016l0.09,-0.015l0.09,-0.014l0.09,-0.013l0.091,-0.012l0.09,-0.011l0.091,-0.009l0.092,-0.009l0.091,-0.007l0.092,-0.007l0.091,-0.005l0.092,-0.004l0.093,-0.003l0.092,-0.001l0.093,-0.001l0.092,0.001Zm-4.441,10.999l0.025,0.156l0.026,0.155l0.027,0.157l0.029,0.157l0.029,0.156l0.031,0.157l0.032,0.159l0.033,0.157l0.034,0.157l0.035,0.158l0.036,0.158l0.037,0.156l0.038,0.158l0.039,0.157l0.04,0.156l0.041,0.158l0.041,0.156l0.042,0.156l0.043,0.156l0.044,0.154l0.044,0.154l0.045,0.155l0.046,0.154l0.046,0.152l0.047,0.152l0.047,0.151l0.047,0.147l0.098,0.302l0.098,0.294l0.1,0.29l0.1,0.287l0.102,0.281l0.101,0.276l0.102,0.27l0.102,0.265l0.101,0.259l0.037,0.093l0.074,-0.067l0.205,-0.189l0.207,-0.193l0.21,-0.199l0.213,-0.203l0.213,-0.208l0.217,-0.213l0.217,-0.218l0.217,-0.222l0.22,-0.227l0.106,-0.112l0.11,-0.116l0.108,-0.116l0.108,-0.116l0.109,-0.118l0.108,-0.119l0.107,-0.119l0.108,-0.121l0.107,-0.121l0.105,-0.12l0.106,-0.123l0.106,-0.123l0.104,-0.124l0.104,-0.124l0.103,-0.124l0.103,-0.126l0.102,-0.126l0.1,-0.126l0.099,-0.126l0.099,-0.127l0.098,-0.128l0.096,-0.127l0.096,-0.129l0.094,-0.128l0.093,-0.128l0.092,-0.13l0.091,-0.129l0.027,-0.039l-0.067,0.025l-0.036,0.012l-0.108,0.038l-0.032,0.01l-0.11,0.035l-0.036,0.011l-0.112,0.033l-0.034,0.009l-0.112,0.03l-0.036,0.009l-0.113,0.027l-0.035,0.008l-0.115,0.024l-0.037,0.008l-0.115,0.022l-0.035,0.006l-0.115,0.018l-0.038,0.006l-0.115,0.016l-0.036,0.004l-0.116,0.013l-0.037,0.004l-0.118,0.011l-0.04,0.002l-0.118,0.008l-0.034,0.001l-0.118,0.005l-0.039,0.001l-0.12,0.001l-0.036,0l-0.119,-0.001l-0.039,-0.001l-0.119,-0.005l-0.036,-0.001l-0.119,-0.008l-0.038,-0.003l-0.121,-0.01l-0.038,-0.004l-0.121,-0.014l-0.04,-0.005l-0.119,-0.016l-0.035,-0.006l-0.12,-0.019l-0.039,-0.007l-0.12,-0.023l-0.036,-0.008l-0.121,-0.026l-0.04,-0.009l-0.12,-0.03l-0.035,-0.009l-0.116,-0.031l-0.035,-0.01l-0.118,-0.035l-0.039,-0.013l-0.116,-0.038l-0.034,-0.011l-0.113,-0.04l-0.035,-0.013l-0.112,-0.043l-0.036,-0.014l-0.112,-0.046l-0.035,-0.015l-0.109,-0.048l-0.032,-0.015l-0.108,-0.051l-0.035,-0.017l-0.107,-0.054l-0.034,-0.018l-0.104,-0.056l-0.033,-0.018l-0.102,-0.058l-0.03,-0.017l-0.102,-0.061l-0.035,-0.022l-0.1,-0.064l-0.028,-0.018l-0.096,-0.064l-0.031,-0.022l-0.096,-0.067l-0.03,-0.022l-0.093,-0.07l-0.029,-0.021l-0.092,-0.072l-0.029,-0.024l-0.09,-0.074l-0.027,-0.022l-0.088,-0.076l-0.028,-0.026l-0.087,-0.078l-0.026,-0.024l-0.082,-0.079l-0.025,-0.024l-0.081,-0.081l-0.027,-0.027l-0.049,-0.052l0.007,0.047Zm4.466,-7.666l-0.082,0.003l-0.08,0.006l-0.081,0.007l-0.08,0.009l-0.079,0.011l-0.079,0.012l-0.079,0.015l-0.078,0.017l-0.078,0.018l-0.077,0.021l-0.076,0.022l-0.076,0.024l-0.074,0.026l-0.075,0.027l-0.073,0.03l-0.073,0.031l-0.072,0.032l-0.071,0.035l-0.07,0.036l-0.069,0.038l-0.069,0.039l-0.067,0.041l-0.067,0.043l-0.065,0.044l-0.064,0.046l-0.064,0.047l-0.062,0.049l-0.061,0.05l-0.059,0.052l-0.059,0.053l-0.057,0.055l-0.056,0.056l-0.055,0.057l-0.053,0.059l-0.052,0.06l-0.051,0.062l-0.049,0.063l-0.048,0.064l-0.046,0.065l-0.045,0.067l-0.043,0.068l-0.042,0.069l-0.04,0.07l-0.038,0.072l-0.037,0.073l-0.035,0.074l-0.033,0.075l-0.031,0.076l-0.03,0.077l-0.028,0.078l-0.025,0.08l-0.024,0.08l-0.023,0.082l-0.02,0.082l-0.018,0.083l-0.015,0.083l-0.014,0.082l-0.012,0.083l-0.009,0.083l-0.007,0.082l-0.005,0.082l-0.003,0.082l-0.001,0.082l0.001,0.081l0.003,0.081l0.005,0.081l0.007,0.081l0.009,0.08l0.011,0.079l0.013,0.079l0.014,0.079l0.017,0.078l0.018,0.078l0.021,0.076l0.022,0.077l0.024,0.075l0.026,0.075l0.027,0.075l0.03,0.073l0.031,0.073l0.032,0.072l0.035,0.071l0.036,0.07l0.038,0.069l0.039,0.069l0.041,0.067l0.043,0.067l0.044,0.065l0.046,0.064l0.047,0.063l0.049,0.063l0.05,0.061l0.052,0.059l0.053,0.059l0.055,0.057l0.056,0.056l0.057,0.055l0.059,0.053l0.06,0.052l0.062,0.051l0.063,0.049l0.064,0.048l0.065,0.046l0.067,0.045l0.068,0.043l0.069,0.042l0.071,0.04l0.071,0.038l0.073,0.037l0.074,0.034l0.075,0.034l0.076,0.031l0.077,0.03l0.079,0.027l0.079,0.026l0.08,0.024l0.082,0.022l0.082,0.021l0.083,0.018l0.083,0.015l0.082,0.014l0.083,0.012l0.083,0.009l0.082,0.007l0.082,0.005l0.082,0.003l0.082,0.001l0.081,-0.001l0.082,-0.003l0.08,-0.005l0.081,-0.007l0.08,-0.009l0.079,-0.011l0.079,-0.013l0.079,-0.014l0.078,-0.017l0.078,-0.019l0.077,-0.02l0.076,-0.022l0.076,-0.024l0.075,-0.026l0.074,-0.027l0.073,-0.03l0.073,-0.031l0.072,-0.033l0.071,-0.034l0.07,-0.036l0.069,-0.038l0.069,-0.039l0.067,-0.041l0.067,-0.043l0.065,-0.044l0.064,-0.046l0.064,-0.047l0.062,-0.049l0.061,-0.05l0.059,-0.052l0.059,-0.053l0.057,-0.055l0.056,-0.056l0.055,-0.057l0.053,-0.059l0.053,-0.06l0.05,-0.062l0.049,-0.063l0.048,-0.064l0.046,-0.065l0.045,-0.067l0.043,-0.068l0.042,-0.069l0.04,-0.071l0.038,-0.071l0.037,-0.073l0.035,-0.074l0.033,-0.075l0.031,-0.076l0.03,-0.077l0.028,-0.079l0.025,-0.079l0.025,-0.08l0.022,-0.082l0.02,-0.082l0.018,-0.083l0.016,-0.083l0.013,-0.083l0.012,-0.082l0.009,-0.083l0.007,-0.082l0.005,-0.082l0.004,-0.082l0.001,-0.082l-0.001,-0.082l-0.004,-0.081l-0.005,-0.08l-0.007,-0.081l-0.009,-0.08l-0.011,-0.079l-0.012,-0.08l-0.015,-0.078l-0.017,-0.078l-0.018,-0.078l-0.021,-0.077l-0.022,-0.076l-0.024,-0.076l-0.026,-0.075l-0.027,-0.074l-0.03,-0.073l-0.031,-0.073l-0.032,-0.072l-0.035,-0.071l-0.036,-0.07l-0.038,-0.07l-0.039,-0.068l-0.041,-0.067l-0.043,-0.067l-0.044,-0.065l-0.046,-0.064l-0.047,-0.064l-0.049,-0.062l-0.05,-0.061l-0.052,-0.06l-0.053,-0.058l-0.055,-0.057l-0.056,-0.056l-0.057,-0.055l-0.059,-0.054l-0.06,-0.052l-0.062,-0.05l-0.063,-0.049l-0.064,-0.048l-0.065,-0.046l-0.067,-0.045l-0.068,-0.043l-0.069,-0.042l-0.071,-0.04l-0.071,-0.038l-0.073,-0.037l-0.074,-0.035l-0.075,-0.033l-0.076,-0.031l-0.077,-0.03l-0.078,-0.028l-0.08,-0.026l-0.08,-0.024l-0.082,-0.022l-0.082,-0.02l-0.083,-0.018l-0.083,-0.016l-0.082,-0.013l-0.083,-0.012l-0.083,-0.009l-0.082,-0.007l-0.082,-0.006l-0.082,-0.003l-0.082,-0.001l-0.081,0.001Z"/></svg>