<?xml version="1.0" encoding="UTF-8" standalone="no"?><!DOCTYPE svg PUBLIC "-//W3C//DTD SVG 1.1//EN" "http://www.w3.org/Graphics/SVG/1.1/DTD/svg11.dtd"><svg width="100%" height="100%" viewBox="0 0 75 45" version="1.1" xmlns="http://www.w3.org/2000/svg" xmlns:xlink="http://www.w3.org/1999/xlink" xml:space="preserve" xmlns:serif="http://www.serif.com/" style="fill-rule:evenodd;clip-rule:evenodd;stroke-linejoin:round;stroke-miterlimit:1.41421;"><g><path d="M72.317,0.634l0.193,0.038l0.185,0.063l0.176,0.087l0.163,0.109l0.148,0.13l0.129,0.147l0.109,0.163l0.087,0.176l0.063,0.186l0.038,0.192l0.013,0.196l-0.013,0.196l-0.038,0.193l-0.063,0.185l-0.087,0.176l-0.109,0.163l-0.129,0.148l-0.148,0.129l-0.163,0.109l-0.176,0.087l-0.185,0.063l-0.193,0.038l-0.196,0.013l-70,0l-0.195,-0.013l-0.193,-0.038l-0.186,-0.063l-0.176,-0.087l-0.163,-0.109l-0.147,-0.129l-0.13,-0.148l-0.109,-0.163l-0.086,-0.176l-0.064,-0.185l-0.038,-0.193l-0.013,-0.196l0.013,-0.196l0.038,-0.192l0.064,-0.186l0.086,-0.176l0.109,-0.163l0.13,-0.147l0.147,-0.13l0.163,-0.109l0.176,-0.087l0.186,-0.063l0.193,-0.038l0.195,-0.013l70,0l0.196,0.013Z"/><path d="M72.317,20.634l0.193,0.038l0.185,0.063l0.176,0.087l0.163,0.109l0.148,0.13l0.129,0.147l0.109,0.163l0.087,0.176l0.063,0.186l0.038,0.192l0.013,0.196l-0.013,0.196l-0.038,0.193l-0.063,0.185l-0.087,0.176l-0.109,0.163l-0.129,0.148l-0.148,0.129l-0.163,0.109l-0.176,0.087l-0.185,0.063l-0.193,0.038l-0.196,0.013l-70,0l-0.195,-0.013l-0.193,-0.038l-0.186,-0.063l-0.176,-0.087l-0.163,-0.109l-0.147,-0.129l-0.13,-0.148l-0.109,-0.163l-0.086,-0.176l-0.064,-0.185l-0.038,-0.193l-0.013,-0.196l0.013,-0.196l0.038,-0.192l0.064,-0.186l0.086,-0.176l0.109,-0.163l0.13,-0.147l0.147,-0.13l0.163,-0.109l0.176,-0.087l0.186,-0.063l0.193,-0.038l0.195,-0.013l70,0l0.196,0.013Z"/><path d="M72.317,40.634l0.193,0.038l0.185,0.064l0.176,0.086l0.163,0.109l0.148,0.13l0.129,0.147l0.109,0.163l0.087,0.176l0.063,0.186l0.038,0.193l0.013,0.195l-0.013,0.196l-0.038,0.193l-0.063,0.185l-0.087,0.176l-0.109,0.164l-0.129,0.147l-0.148,0.129l-0.163,0.109l-0.176,0.087l-0.185,0.063l-0.193,0.039l-0.196,0.012l-70,0l-0.195,-0.012l-0.193,-0.039l-0.186,-0.063l-0.176,-0.087l-0.163,-0.109l-0.147,-0.129l-0.13,-0.147l-0.109,-0.164l-0.086,-0.176l-0.064,-0.185l-0.038,-0.193l-0.013,-0.196l0.013,-0.195l0.038,-0.193l0.064,-0.186l0.086,-0.176l0.109,-0.163l0.13,-0.147l0.147,-0.13l0.163,-0.109l0.176,-0.086l0.186,-0.064l0.193,-0.038l0.195,-0.013l70,0l0.196,0.013Z"/></g></svg>