<?xml version="1.0" encoding="UTF-8" standalone="no"?><!DOCTYPE svg PUBLIC "-//W3C//DTD SVG 1.1//EN" "http://www.w3.org/Graphics/SVG/1.1/DTD/svg11.dtd"><svg width="100%" height="100%" viewBox="0 0 15 24" version="1.1" xmlns="http://www.w3.org/2000/svg" xmlns:xlink="http://www.w3.org/1999/xlink" xml:space="preserve" xmlns:serif="http://www.serif.com/" style="fill-rule:evenodd;clip-rule:evenodd;stroke-linejoin:round;stroke-miterlimit:1.41421;"><path d="M7.466,23.035c0,0 7.466,-8.606 7.466,-15.569c0,-4.121 -3.346,-7.466 -7.466,-7.466c-4.121,0 -7.466,3.345 -7.466,7.466c0,6.963 7.466,15.569 7.466,15.569Zm0,-19.725c1.814,0 3.287,1.473 3.287,3.288c0,1.814 -1.473,3.287 -3.287,3.287c-1.815,0 -3.288,-1.473 -3.288,-3.287c0,-1.815 1.473,-3.288 3.288,-3.288Z"/><path d="M7.562,0.001l0.096,0.001l0.096,0.003l0.096,0.005l0.095,0.005l0.095,0.007l0.094,0.008l0.095,0.009l0.094,0.01l0.093,0.011l0.093,0.012l0.093,0.014l0.093,0.015l0.092,0.016l0.091,0.017l0.092,0.018l0.091,0.019l0.09,0.02l0.09,0.022l0.09,0.022l0.089,0.024l0.089,0.024l0.088,0.026l0.088,0.027l0.087,0.028l0.087,0.029l0.087,0.029l0.086,0.031l0.085,0.032l0.085,0.033l0.085,0.034l0.084,0.035l0.083,0.036l0.083,0.037l0.083,0.038l0.081,0.039l0.082,0.04l0.08,0.04l0.081,0.042l0.079,0.043l0.079,0.043l0.079,0.045l0.078,0.045l0.077,0.046l0.077,0.048l0.076,0.048l0.075,0.049l0.075,0.05l0.074,0.051l0.074,0.051l0.072,0.053l0.073,0.053l0.071,0.054l0.071,0.055l0.07,0.056l0.07,0.057l0.068,0.057l0.069,0.058l0.067,0.06l0.067,0.059l0.066,0.061l0.065,0.062l0.064,0.062l0.064,0.063l0.063,0.063l0.062,0.065l0.062,0.065l0.06,0.066l0.06,0.067l0.059,0.067l0.058,0.068l0.058,0.069l0.057,0.07l0.055,0.07l0.055,0.071l0.055,0.071l0.053,0.072l0.052,0.073l0.052,0.074l0.051,0.074l0.05,0.075l0.049,0.075l0.048,0.076l0.047,0.077l0.047,0.077l0.045,0.078l0.044,0.078l0.044,0.079l0.043,0.08l0.041,0.08l0.041,0.081l0.04,0.081l0.039,0.082l0.038,0.083l0.037,0.082l0.036,0.084l0.035,0.084l0.033,0.084l0.033,0.085l0.032,0.086l0.031,0.086l0.03,0.086l0.029,0.087l0.028,0.088l0.027,0.088l0.025,0.088l0.025,0.089l0.023,0.089l0.023,0.09l0.021,0.09l0.021,0.09l0.019,0.091l0.018,0.091l0.017,0.092l0.016,0.092l0.015,0.093l0.013,0.092l0.013,0.094l0.011,0.093l0.01,0.094l0.009,0.094l0.008,0.095l0.007,0.095l0.005,0.095l0.004,0.095l0.003,0.096l0.002,0.096l0.001,0.097l-0.002,0.163l-0.004,0.164l-0.006,0.165l-0.01,0.165l-0.012,0.166l-0.014,0.166l-0.017,0.166l-0.019,0.167l-0.022,0.167l-0.024,0.168l-0.026,0.168l-0.029,0.168l-0.031,0.169l-0.033,0.168l-0.035,0.169l-0.037,0.169l-0.039,0.169l-0.042,0.169l-0.043,0.17l-0.045,0.169l-0.047,0.169l-0.049,0.17l-0.051,0.169l-0.052,0.169l-0.054,0.17l-0.056,0.169l-0.058,0.168l-0.059,0.169l-0.06,0.168l-0.062,0.169l-0.064,0.168l-0.065,0.167l-0.066,0.167l-0.068,0.167l-0.069,0.167l-0.07,0.166l-0.071,0.166l-0.073,0.165l-0.073,0.164l-0.075,0.164l-0.076,0.164l-0.076,0.163l-0.078,0.162l-0.078,0.162l-0.08,0.161l-0.08,0.16l-0.081,0.159l-0.082,0.159l-0.082,0.158l-0.083,0.157l-0.084,0.156l-0.084,0.155l-0.084,0.155l-0.085,0.153l-0.086,0.153l-0.086,0.151l-0.086,0.151l-0.087,0.149l-0.087,0.148l-0.087,0.147l-0.174,0.291l-0.175,0.286l-0.175,0.28l-0.175,0.276l-0.174,0.27l-0.173,0.264l-0.171,0.258l-0.17,0.251l-0.168,0.245l-0.165,0.239l-0.163,0.231l-0.159,0.225l-0.156,0.216l-0.153,0.209l-0.148,0.202l-0.144,0.193l-0.139,0.184l-0.134,0.176l-0.128,0.168l-0.123,0.158l-0.116,0.149l-0.11,0.139l-0.199,0.249l-0.169,0.208l-0.137,0.164l-0.1,0.121l-0.084,0.098l-0.084,-0.098l-0.101,-0.121l-0.136,-0.164l-0.169,-0.208l-0.199,-0.249l-0.11,-0.139l-0.117,-0.149l-0.122,-0.158l-0.129,-0.168l-0.134,-0.176l-0.139,-0.184l-0.143,-0.193l-0.149,-0.202l-0.152,-0.209l-0.156,-0.216l-0.16,-0.225l-0.162,-0.231l-0.166,-0.239l-0.168,-0.245l-0.169,-0.251l-0.172,-0.258l-0.173,-0.264l-0.174,-0.27l-0.174,-0.276l-0.175,-0.28l-0.175,-0.286l-0.175,-0.291l-0.087,-0.147l-0.086,-0.148l-0.087,-0.149l-0.086,-0.151l-0.086,-0.151l-0.086,-0.153l-0.085,-0.153l-0.085,-0.155l-0.084,-0.155l-0.083,-0.156l-0.083,-0.157l-0.083,-0.158l-0.081,-0.159l-0.081,-0.159l-0.081,-0.16l-0.079,-0.161l-0.078,-0.162l-0.078,-0.162l-0.077,-0.163l-0.075,-0.164l-0.075,-0.164l-0.074,-0.164l-0.072,-0.165l-0.072,-0.166l-0.07,-0.166l-0.069,-0.167l-0.067,-0.167l-0.066,-0.167l-0.065,-0.167l-0.064,-0.168l-0.062,-0.169l-0.061,-0.168l-0.059,-0.169l-0.057,-0.168l-0.056,-0.169l-0.054,-0.17l-0.052,-0.169l-0.051,-0.169l-0.049,-0.17l-0.047,-0.169l-0.045,-0.169l-0.044,-0.17l-0.041,-0.169l-0.039,-0.169l-0.037,-0.169l-0.036,-0.169l-0.033,-0.168l-0.03,-0.169l-0.029,-0.168l-0.026,-0.168l-0.024,-0.168l-0.022,-0.167l-0.019,-0.167l-0.017,-0.166l-0.015,-0.166l-0.012,-0.166l-0.009,-0.165l-0.007,-0.165l-0.004,-0.164l-0.001,-0.163l0.001,-0.097l0.001,-0.096l0.003,-0.096l0.005,-0.095l0.005,-0.095l0.007,-0.095l0.008,-0.095l0.009,-0.094l0.01,-0.094l0.011,-0.093l0.012,-0.094l0.014,-0.092l0.015,-0.093l0.016,-0.092l0.017,-0.092l0.018,-0.091l0.019,-0.091l0.02,-0.09l0.022,-0.09l0.022,-0.09l0.024,-0.089l0.024,-0.089l0.026,-0.088l0.027,-0.088l0.028,-0.088l0.029,-0.087l0.029,-0.086l0.031,-0.086l0.032,-0.086l0.033,-0.085l0.034,-0.084l0.035,-0.084l0.036,-0.084l0.037,-0.082l0.038,-0.083l0.039,-0.082l0.04,-0.081l0.04,-0.081l0.042,-0.08l0.043,-0.08l0.043,-0.079l0.045,-0.078l0.045,-0.078l0.046,-0.077l0.048,-0.077l0.048,-0.076l0.049,-0.075l0.05,-0.075l0.051,-0.074l0.051,-0.074l0.053,-0.073l0.053,-0.072l0.054,-0.071l0.055,-0.071l0.056,-0.07l0.057,-0.07l0.057,-0.069l0.058,-0.068l0.06,-0.067l0.059,-0.067l0.061,-0.066l0.062,-0.065l0.062,-0.065l0.063,-0.063l0.063,-0.063l0.065,-0.062l0.065,-0.062l0.066,-0.061l0.067,-0.059l0.067,-0.06l0.068,-0.058l0.069,-0.057l0.07,-0.057l0.07,-0.056l0.071,-0.055l0.071,-0.054l0.072,-0.053l0.073,-0.053l0.074,-0.051l0.074,-0.051l0.075,-0.05l0.075,-0.049l0.076,-0.048l0.077,-0.048l0.077,-0.046l0.078,-0.045l0.078,-0.045l0.079,-0.043l0.08,-0.043l0.08,-0.042l0.081,-0.04l0.081,-0.04l0.082,-0.039l0.083,-0.038l0.082,-0.037l0.084,-0.036l0.084,-0.035l0.084,-0.034l0.085,-0.033l0.086,-0.032l0.086,-0.031l0.086,-0.029l0.087,-0.029l0.088,-0.028l0.088,-0.027l0.088,-0.026l0.089,-0.024l0.089,-0.024l0.09,-0.022l0.09,-0.022l0.09,-0.02l0.091,-0.019l0.091,-0.018l0.092,-0.017l0.092,-0.016l0.093,-0.015l0.092,-0.014l0.094,-0.012l0.093,-0.011l0.094,-0.01l0.094,-0.009l0.095,-0.008l0.095,-0.007l0.095,-0.005l0.095,-0.005l0.096,-0.003l0.096,-0.001l0.097,-0.001l0.096,0.001Zm3.308,11.883l-0.028,0.018l-0.097,0.06l-0.03,0.019l-0.1,0.059l-0.034,0.02l-0.102,0.056l-0.031,0.017l-0.103,0.054l-0.033,0.018l-0.104,0.051l-0.03,0.015l-0.105,0.049l-0.034,0.015l-0.107,0.047l-0.033,0.014l-0.109,0.045l-0.037,0.014l-0.11,0.042l-0.032,0.012l-0.111,0.039l-0.036,0.012l-0.112,0.036l-0.033,0.011l-0.114,0.034l-0.039,0.011l-0.115,0.031l-0.035,0.009l-0.115,0.028l-0.036,0.008l-0.116,0.025l-0.035,0.008l-0.118,0.022l-0.04,0.008l-0.119,0.019l-0.035,0.006l-0.119,0.016l-0.037,0.005l-0.121,0.014l-0.04,0.004l-0.121,0.011l-0.036,0.002l-0.122,0.008l-0.039,0.002l-0.122,0.005l-0.036,0.001l-0.123,0.001l-0.041,0l-0.123,-0.001l-0.036,-0.001l-0.121,-0.005l-0.039,-0.002l-0.122,-0.008l-0.036,-0.002l-0.122,-0.011l-0.04,-0.004l-0.121,-0.014l-0.037,-0.005l-0.118,-0.016l-0.035,-0.006l-0.119,-0.019l-0.04,-0.008l-0.118,-0.022l-0.036,-0.008l-0.115,-0.025l-0.037,-0.008l-0.114,-0.028l-0.035,-0.009l-0.115,-0.031l-0.039,-0.011l-0.114,-0.034l-0.034,-0.011l-0.111,-0.036l-0.037,-0.012l-0.11,-0.039l-0.033,-0.012l-0.11,-0.042l-0.036,-0.014l-0.109,-0.045l-0.034,-0.014l-0.106,-0.047l-0.033,-0.015l-0.105,-0.049l-0.033,-0.016l-0.104,-0.051l-0.032,-0.017l-0.102,-0.054l-0.031,-0.017l-0.102,-0.056l-0.034,-0.02l-0.1,-0.059l-0.031,-0.019l-0.096,-0.06l-0.028,-0.018l-0.062,-0.041l0.018,0.045l0.059,0.145l0.06,0.146l0.062,0.147l0.063,0.146l0.064,0.146l0.066,0.148l0.066,0.145l0.067,0.145l0.069,0.147l0.07,0.146l0.071,0.145l0.071,0.145l0.072,0.145l0.074,0.144l0.074,0.144l0.074,0.143l0.077,0.144l0.076,0.142l0.076,0.141l0.078,0.142l0.078,0.141l0.078,0.139l0.079,0.138l0.08,0.14l0.08,0.138l0.079,0.136l0.079,0.132l0.163,0.272l0.162,0.265l0.163,0.261l0.162,0.256l0.162,0.251l0.161,0.247l0.16,0.24l0.159,0.235l0.157,0.23l0.057,0.082l0.057,-0.083l0.157,-0.229l0.159,-0.235l0.159,-0.24l0.162,-0.247l0.161,-0.251l0.163,-0.256l0.162,-0.261l0.162,-0.265l0.164,-0.272l0.078,-0.132l0.08,-0.136l0.08,-0.138l0.079,-0.139l0.08,-0.14l0.078,-0.139l0.078,-0.14l0.077,-0.142l0.077,-0.141l0.076,-0.142l0.076,-0.144l0.075,-0.143l0.074,-0.143l0.073,-0.145l0.073,-0.146l0.071,-0.144l0.07,-0.145l0.07,-0.146l0.069,-0.146l0.067,-0.146l0.067,-0.146l0.065,-0.147l0.065,-0.146l0.062,-0.145l0.063,-0.148l0.06,-0.147l0.059,-0.144l0.018,-0.045l-0.062,0.041Zm-3.489,-8.573l-0.084,0.004l-0.084,0.005l-0.083,0.007l-0.083,0.01l-0.082,0.011l-0.081,0.014l-0.08,0.015l-0.08,0.018l-0.079,0.019l-0.079,0.021l-0.077,0.023l-0.077,0.025l-0.076,0.027l-0.075,0.029l-0.074,0.03l-0.074,0.032l-0.072,0.034l-0.071,0.035l-0.071,0.037l-0.069,0.039l-0.068,0.041l-0.068,0.042l-0.066,0.043l-0.065,0.045l-0.064,0.047l-0.062,0.048l-0.062,0.049l-0.06,0.051l-0.059,0.053l-0.058,0.054l-0.056,0.055l-0.055,0.056l-0.054,0.058l-0.053,0.059l-0.051,0.06l-0.049,0.062l-0.048,0.062l-0.047,0.064l-0.045,0.065l-0.043,0.066l-0.042,0.068l-0.041,0.068l-0.039,0.069l-0.037,0.071l-0.035,0.071l-0.034,0.072l-0.032,0.074l-0.03,0.074l-0.029,0.075l-0.027,0.076l-0.025,0.077l-0.023,0.077l-0.021,0.079l-0.019,0.079l-0.018,0.08l-0.015,0.08l-0.014,0.081l-0.011,0.082l-0.01,0.083l-0.007,0.083l-0.005,0.084l-0.004,0.084l-0.001,0.085l0.001,0.085l0.004,0.084l0.005,0.084l0.007,0.083l0.01,0.082l0.011,0.082l0.014,0.081l0.015,0.081l0.018,0.08l0.019,0.079l0.021,0.078l0.023,0.078l0.025,0.077l0.027,0.076l0.029,0.075l0.03,0.074l0.032,0.073l0.034,0.073l0.035,0.071l0.037,0.07l0.039,0.07l0.041,0.068l0.042,0.067l0.043,0.066l0.045,0.065l0.047,0.064l0.048,0.063l0.049,0.061l0.051,0.061l0.053,0.059l0.054,0.057l0.055,0.057l0.056,0.055l0.058,0.054l0.059,0.052l0.06,0.051l0.062,0.05l0.062,0.048l0.064,0.046l0.065,0.045l0.066,0.044l0.068,0.042l0.068,0.04l0.069,0.039l0.071,0.037l0.071,0.036l0.072,0.034l0.074,0.032l0.074,0.03l0.075,0.029l0.076,0.026l0.077,0.025l0.077,0.023l0.079,0.022l0.079,0.019l0.08,0.017l0.08,0.016l0.081,0.013l0.082,0.012l0.083,0.009l0.083,0.008l0.084,0.005l0.084,0.003l0.085,0.001l0.085,-0.001l0.084,-0.003l0.084,-0.005l0.083,-0.008l0.082,-0.009l0.082,-0.012l0.081,-0.013l0.081,-0.016l0.08,-0.017l0.079,-0.019l0.078,-0.022l0.078,-0.023l0.077,-0.025l0.076,-0.026l0.075,-0.029l0.074,-0.03l0.073,-0.032l0.073,-0.034l0.071,-0.036l0.07,-0.037l0.07,-0.039l0.068,-0.04l0.067,-0.042l0.066,-0.044l0.065,-0.045l0.064,-0.046l0.063,-0.048l0.061,-0.05l0.061,-0.051l0.059,-0.052l0.057,-0.054l0.057,-0.055l0.055,-0.057l0.054,-0.057l0.052,-0.059l0.051,-0.061l0.05,-0.061l0.048,-0.063l0.046,-0.064l0.046,-0.065l0.043,-0.066l0.042,-0.067l0.04,-0.068l0.039,-0.07l0.037,-0.07l0.036,-0.071l0.034,-0.073l0.032,-0.073l0.03,-0.074l0.029,-0.075l0.026,-0.076l0.025,-0.077l0.023,-0.078l0.022,-0.078l0.019,-0.079l0.017,-0.08l0.016,-0.081l0.013,-0.081l0.012,-0.082l0.009,-0.082l0.008,-0.083l0.005,-0.084l0.003,-0.084l0.001,-0.085l-0.001,-0.085l-0.003,-0.084l-0.005,-0.084l-0.008,-0.083l-0.009,-0.083l-0.012,-0.082l-0.013,-0.081l-0.016,-0.08l-0.017,-0.08l-0.019,-0.079l-0.022,-0.079l-0.023,-0.077l-0.025,-0.077l-0.026,-0.076l-0.029,-0.075l-0.03,-0.074l-0.032,-0.074l-0.034,-0.072l-0.036,-0.071l-0.037,-0.071l-0.039,-0.069l-0.04,-0.068l-0.042,-0.068l-0.043,-0.066l-0.046,-0.065l-0.046,-0.064l-0.048,-0.062l-0.05,-0.062l-0.051,-0.06l-0.052,-0.059l-0.054,-0.058l-0.055,-0.056l-0.057,-0.055l-0.057,-0.054l-0.059,-0.053l-0.061,-0.051l-0.061,-0.049l-0.063,-0.048l-0.064,-0.047l-0.065,-0.045l-0.066,-0.043l-0.067,-0.042l-0.068,-0.041l-0.07,-0.039l-0.07,-0.037l-0.071,-0.035l-0.073,-0.034l-0.073,-0.032l-0.074,-0.03l-0.075,-0.029l-0.076,-0.027l-0.077,-0.025l-0.078,-0.023l-0.078,-0.021l-0.079,-0.019l-0.08,-0.018l-0.081,-0.015l-0.081,-0.014l-0.082,-0.011l-0.082,-0.01l-0.083,-0.007l-0.084,-0.005l-0.084,-0.004l-0.085,-0.001l-0.085,0.001Z"/></svg>