<?xml version="1.0" encoding="UTF-8" standalone="no"?><!DOCTYPE svg PUBLIC "-//W3C//DTD SVG 1.1//EN" "http://www.w3.org/Graphics/SVG/1.1/DTD/svg11.dtd"><svg width="100%" height="100%" viewBox="0 0 370 552" version="1.1" xmlns="http://www.w3.org/2000/svg" xmlns:xlink="http://www.w3.org/1999/xlink" xml:space="preserve" xmlns:serif="http://www.serif.com/" style="fill-rule:evenodd;clip-rule:evenodd;stroke-linecap:round;stroke-miterlimit:1;"><path d="M245.438,78.168c8.202,-3.676 30.965,-70.221 40.742,-77.814" style="fill:none;stroke:#000;stroke-width:0.5px;"/><path d="M289.256,545.103c-0.85,3.677 -4.519,5.97 -8.197,5.121c-38.823,-8.963 -235.576,-54.387 -274.4,-63.35c-3.678,-0.849 -5.971,-4.519 -5.122,-8.196c11.103,-48.092 78.592,-340.417 78.592,-340.417l0.015,-0.007c0.09,-0.43 0.185,-0.861 0.284,-1.291c8.493,-36.786 47.619,-59.21 87.318,-50.045c3.466,0.8 6.823,1.815 10.057,3.025c12.757,-25.982 42.708,-40.682 72.796,-33.735c30.088,6.946 50.564,33.288 50.64,62.233c3.438,0.33 6.9,0.889 10.366,1.689c39.699,9.165 65.034,46.472 56.542,83.258c-0.1,0.43 -0.203,0.859 -0.311,1.285l0.011,0.013c0,0 -67.489,292.325 -78.591,340.417Zm-43.416,-468.283c5.383,1.242 8.769,6.514 7.557,11.765c-1.212,5.25 -6.566,8.504 -11.949,7.261c-5.383,-1.243 -8.769,-6.514 -7.557,-11.765c1.212,-5.25 6.566,-8.504 11.949,-7.261Z" style="fill:#fff;"/><path d="M180.868,98.68c12.231,-25.191 39.064,-39.929 67.622,-33.336c28.558,6.593 46.215,31.602 46.165,59.605c3.264,0.305 8.238,1.221 11.528,1.98c37.68,8.7 63.22,45.061 54.995,80.686c-0.096,0.417 -0.29,1.257 -0.29,1.257c0,0 -66.56,282.071 -77.664,329.131c-0.864,3.661 -4.524,5.935 -8.189,5.089c-37.463,-8.649 -222.372,-51.338 -259.835,-59.987c-3.665,-0.846 -5.957,-4.495 -5.129,-8.164c10.649,-47.166 74.48,-329.877 74.48,-329.877c0,0 0.191,-0.83 0.288,-1.247c8.224,-35.625 47.119,-57.111 84.799,-48.411c3.29,0.759 8.162,2.116 11.23,3.274Z" style="fill:#dfa8a8;fill-opacity:0;stroke:#000;stroke-width:0.6px;stroke-dasharray:0,3,4.8,0;"/><path d="M278.773,0.354c-32.553,29.425 -38.525,79.289 -33.335,77.78" style="fill:none;stroke:#000;stroke-width:0.5px;"/></svg>